<?xml version="1.0" standalone="no"?>
<!DOCTYPE svg PUBLIC "-//W3C//DTD SVG 20010904//EN"
 "http://www.w3.org/TR/2001/REC-SVG-20010904/DTD/svg10.dtd">
<svg version="1.0" xmlns="http://www.w3.org/2000/svg"
 width="256.000000pt" height="256.000000pt" viewBox="0 0 256.000000 256.000000"
 preserveAspectRatio="xMidYMid meet">
<metadata>
Created by potrace 1.14, written by Peter Selinger 2001-2017
</metadata>
<g transform="translate(0.000000,256.000000) scale(0.100000,-0.100000)"
fill="#000000" stroke="none">
<path d="M1230 2448 c-36 -18 -216 -106 -400 -196 -184 -90 -409 -200 -500
-244 -91 -45 -168 -85 -171 -89 -3 -5 -5 -260 -5 -567 l1 -557 65 -33 c36 -19
68 -38 71 -44 3 -5 9 -9 13 -9 20 3 26 0 20 -11 -4 -6 -3 -8 4 -5 15 10 43 -3
35 -16 -3 -6 -1 -7 5 -3 15 9 135 -47 125 -59 -4 -4 -3 -5 4 -1 6 3 67 -21
135 -54 68 -34 139 -69 158 -78 19 -9 38 -21 42 -27 4 -5 8 -7 8 -3 0 6 329
-152 412 -197 31 -18 88 -26 88 -14 0 11 60 42 60 32 0 -5 4 -3 8 2 4 6 30 21
57 34 28 13 57 28 65 32 114 60 264 127 273 122 5 -3 7 -2 4 4 -6 9 70 50 86
45 4 -1 7 2 7 8 0 5 18 15 40 21 22 7 45 18 51 26 6 7 20 13 30 13 11 0 19 5
19 10 0 6 3 9 8 8 4 -1 96 42 205 96 134 67 197 103 198 114 5 92 1 1101 -5
1110 -3 6 -34 24 -69 40 -34 17 -197 96 -362 177 -528 259 -706 345 -713 345
-4 -1 -36 -15 -72 -32z"/>
<path d="M276 642 c-3 -5 1 -9 9 -9 8 0 12 4 9 9 -3 4 -7 8 -9 8 -2 0 -6 -4
-9 -8z"/>
<path d="M1990 480 c0 -5 5 -10 11 -10 5 0 7 5 4 10 -3 6 -8 10 -11 10 -2 0
-4 -4 -4 -10z"/>
<path d="M796 287 c3 -10 9 -15 12 -12 3 3 0 11 -7 18 -10 9 -11 8 -5 -6z"/>
</g>
</svg>
